<?xml version="1.0" encoding="utf-8"?>
<!-- Generator: Adobe Illustrator 21.0.2, SVG Export Plug-In . SVG Version: 6.00 Build 0)  -->
<svg version="1.1" id="Layer_1" xmlns="http://www.w3.org/2000/svg" xmlns:xlink="http://www.w3.org/1999/xlink" x="0px" y="0px"
	 viewBox="0 0 156.7 54" style="enable-background:new 0 0 156.7 54;" xml:space="preserve">
<style type="text/css">
	.st0{fill:#FFFFFF;}
</style>
<path class="st0" d="M45.5,0c0.3,0,0.6,0,0.9,0c0,0.3,0,0.6,0,0.9c0,14.7,0,29.5,0,44.2c0,0.8,0.1,1.9,1,2.2
	c1.1,0.4,2.1-0.5,2.6-1.4c1.5-2.6,1.6-5.7,1.8-8.6c0.2,0,0.6,0,0.8,0c0,3.3-0.3,6.9-2.2,9.8c-1.4,2.1-3.9,3.3-6.3,3.5
	c-3.1,0.3-6.3,0-9-1.7c-1.9-1.2-3.1-3.4-3.1-5.7c0-9.7,0-19.4,0-29.1c-1.3,0-2.5,0-3.8,0c0-0.4,0-0.7,0-1.1c1.3,0,2.6,0.1,3.9-0.1
	c3.9-0.6,7.6-2.6,10.2-5.6C44.3,5.4,45.5,2.8,45.5,0L45.5,0z"/>
<path class="st0" d="M52.6,2.3c2.9-0.6,6,1.7,6.4,4.6c0.4,2.6-1.3,5.2-3.6,6.4c-2.3,1.3-5,1.1-7.5,0.9c0-0.2,0-0.4,0-0.7
	c0.7-0.4,1.5-0.3,2.2-0.3c1.2,0,2.5,0,3.6-0.7c0.3-0.2,0.5-0.5,0.5-0.8c-1.5,0.1-3.2-0.1-4.3-1.2C48,9,47.8,5.9,49.4,4
	C50.1,3,51.3,2.4,52.6,2.3L52.6,2.3z"/>
<path class="st0" d="M104,13.5c2.2-0.8,4.6-1.5,6.9-1.3c-0.1,0.3,0,0.7-0.3,0.8c-1.2,0.5-2.6,1-3.3,2.1c-1.3,1.7-0.9,4.3,0.5,5.8
	c1.3,1.5,3.1,2.2,4.9,2.9c3.8,1.3,7.8,2.1,11.1,4.5c2.1,1.5,3.7,3.8,4.2,6.3c0.7,3.6,0.2,7.5-1.8,10.6c-2.2,3.4-6,5.4-10,5.9
	c-3.6,0.6-7.3-0.2-10.6-1.5c-2-0.7-4-1.7-6.2-1.4c-1.3,0.1-2.6,0.7-3.1,1.9c-0.2,0-0.5,0-0.7,0c0-5.7,0-11.3,0-17c0.1,0,0.5,0,0.6,0
	c1,3.9,3,7.5,5.4,10.7c2.3,2.8,5.1,5.4,8.8,6.4c1.8,0.4,4,0.5,5.6-0.6c1.8-1.2,2.3-3.7,1.7-5.7c-0.4-1.6-1.7-2.7-3.1-3.5
	c-2.9-1.5-6.1-2.2-9.1-3.3c-2.9-1-5.8-2.5-7.6-5c-2.1-2.8-2.4-6.6-1.8-10C96.9,18,100.3,14.9,104,13.5L104,13.5z"/>
<path class="st0" d="M112.4,11.9c3.2-0.1,6.5,0.3,9.5,1.7c1.8,0.8,3.5,2.3,3.9,4.3c0.5,2-0.5,4.2-2.2,5.2c-2.5,1.6-6,1.3-8.2-0.7
	c-1.8-1.6-2-4.7-0.1-6.3c0.5-0.6,1.7-1.2,1.2-2.1c-0.8-0.8-1.9-1.1-3-1.2C113,12.7,112.1,12.8,112.4,11.9L112.4,11.9z"/>
<path class="st0" d="M90.6,24.3c-1.2-4.3-4.1-8.2-8.1-10.3c-3.5-1.9-7.7-2.3-11.6-1.4c-4.8,1.1-9.1,4.1-11.8,8.2
	c-2.8,4.3-3.8,9.7-3,14.8c0.5,3.5,2.2,6.8,4.7,9.3c3.3,3.3,8,5.2,12.6,5.6c1.4,0.1,2.8,0.3,4.1-0.2c0-0.2,0-0.4,0-0.7
	c-1.4-0.4-3-0.4-4.1-1.5c-2.2-2-2.7-5.1-3-7.9c-0.3-3.1-0.4-6.2-0.3-9.3c7,0,14.1,0,21.1,0C91.3,28.7,91.3,26.5,90.6,24.3z
	 M77.7,29.9c-2.5,0-5,0-7.6,0c0.1-4.3,0.2-8.6,1.3-12.8c0.4-1.4,0.9-3,2.3-3.7c0.8-0.4,1.8-0.1,2.4,0.5c0.8,0.9,1,2.2,1.2,3.3
	C77.9,21.4,77.7,25.6,77.7,29.9z"/>
<path class="st0" d="M81.6,33c3.1-1.1,7,0,8.7,2.9c1.4,2.3,1.1,5.2-0.1,7.5c-1.5,2.9-4.3,4.9-7.3,6c-1,0.3-2.1,0.8-3.2,0.6
	c0-0.2,0-0.4,0-0.6c1.5-0.5,3.1-0.8,4.4-1.8c0.5-0.4,0.8-1,0.9-1.6c-1.8,0-3.7-0.3-5.3-1.4c-2-1.4-3.3-4-2.8-6.4
	C77.5,35.8,79.3,33.8,81.6,33L81.6,33z"/>
</svg>
