<?xml version="1.0" encoding="utf-8"?>
<!-- Generator: Adobe Illustrator 21.0.2, SVG Export Plug-In . SVG Version: 6.00 Build 0)  -->
<svg version="1.1" id="Layer_1" xmlns="http://www.w3.org/2000/svg" xmlns:xlink="http://www.w3.org/1999/xlink" x="0px" y="0px"
	 viewBox="0 0 136 33.6" style="enable-background:new 0 0 136 33.6;" xml:space="preserve">
<style type="text/css">
	.st0{fill:#FFFFFF;}
</style>
<path class="st0" d="M29.6,33.3l-8.3-17.8h-0.1l-8.3,17.8H12L0,0.8h7.7l5.6,16.3h0.2l7.5-16.3h0.9l7.5,16.4h0.2L35,0.8h7.4
	L30.5,33.3H29.6z M129.4,0.7v18.4L109.5,0.6h-1.5v32.2h6.7V14.6h0.1l19.7,18.5h1.4V0.7H129.4z M61.1,13.7v6.2h7.2V27h6.4V13.7H61.1z
	 M51.8,16.8c0-5.7,4.4-9.8,10.9-9.8h1.1V0h-1.1C52.2,0,44.8,7.1,44.8,16.8c0,9.7,7.4,16.8,17.9,16.8h1.1v-7h-1.1
	C56.2,26.5,51.8,22.5,51.8,16.8 M80.9,23.3c2.3,2.2,6.1,3.7,9.3,3.7c2.8,0,4.7-1.4,4.7-3.5c0-2.3-2.5-3.1-5.8-4.5
	c-3.4-1.3-8.5-3.5-8.5-9.4C80.5,4.6,84.7,0,92,0c2.7,0,6.1,0.9,8.2,2.1v7.1c-2.1-1.6-5.2-2.6-7.7-2.6c-3.2,0-4.9,1.3-4.9,3
	c0,1.8,1.9,2.7,4.6,3.7c4.1,1.6,10,3.5,10,9.8c0,5.4-4.4,10.4-11.9,10.4c-3.5,0-7.2-1.1-9.4-2.7V23.3z"/>
</svg>
